# Blender 5.1.1
# www.blender.org
o CAL_Box
v -2.000000 -3.000000 4.000000
v -4.000000 -3.000000 4.000000
v -4.000000 -7.000000 4.000000
v -2.000000 -7.000000 4.000000
v -2.000000 -3.000000 10.000000
v -4.000000 -3.000000 10.000000
v -4.000000 -7.000000 10.000000
v -2.000000 -7.000000 10.000000
vn -0.0000 -0.0000 -1.0000
vn -0.0000 -0.0000 1.0000
vn -0.0000 1.0000 -0.0000
vn -0.0000 -1.0000 -0.0000
vn 1.0000 -0.0000 -0.0000
vn -1.0000 -0.0000 -0.0000
s 0
f 4//1 3//1 2//1 1//1
f 5//2 6//2 7//2 8//2
f 1//3 2//3 6//3 5//3
f 4//4 8//4 7//4 3//4
f 1//5 5//5 8//5 4//5
f 2//6 3//6 7//6 6//6
o CAL_Sphere
v 2.000000 0.000000 2.500000
v 2.000000 0.000000 0.500000
v 1.617317 0.000000 2.423880
v 1.646447 -0.146447 2.423880
v 1.729402 -0.270598 2.423880
v 1.853553 -0.353553 2.423880
v 2.000000 -0.382683 2.423880
v 2.146447 -0.353553 2.423880
v 2.270598 -0.270598 2.423880
v 2.353553 -0.146447 2.423880
v 2.382684 -0.000000 2.423880
v 2.353553 0.146447 2.423880
v 2.270598 0.270598 2.423880
v 2.146447 0.353553 2.423880
v 2.000000 0.382683 2.423880
v 1.853553 0.353553 2.423880
v 1.729402 0.270598 2.423880
v 1.646447 0.146447 2.423880
v 1.292893 0.000000 2.207107
v 1.346719 -0.270598 2.207107
v 1.500000 -0.500000 2.207107
v 1.729402 -0.653282 2.207107
v 2.000000 -0.707107 2.207107
v 2.270598 -0.653282 2.207107
v 2.500000 -0.500000 2.207107
v 2.653281 -0.270598 2.207107
v 2.707107 -0.000000 2.207107
v 2.653281 0.270598 2.207107
v 2.500000 0.500000 2.207107
v 2.270598 0.653282 2.207107
v 2.000000 0.707107 2.207107
v 1.729402 0.653282 2.207107
v 1.500000 0.500000 2.207107
v 1.346719 0.270598 2.207107
v 1.076120 0.000000 1.882683
v 1.146447 -0.353553 1.882683
v 1.346719 -0.653282 1.882683
v 1.646447 -0.853553 1.882683
v 2.000000 -0.923880 1.882683
v 2.353553 -0.853553 1.882683
v 2.653281 -0.653282 1.882683
v 2.853553 -0.353553 1.882683
v 2.923880 -0.000000 1.882683
v 2.853553 0.353553 1.882683
v 2.653281 0.653282 1.882683
v 2.353553 0.853553 1.882683
v 2.000000 0.923880 1.882683
v 1.646447 0.853553 1.882683
v 1.346719 0.653282 1.882683
v 1.146447 0.353553 1.882683
v 1.000000 0.000000 1.500000
v 1.076120 -0.382683 1.500000
v 1.292893 -0.707107 1.500000
v 1.617317 -0.923880 1.500000
v 2.000000 -1.000000 1.500000
v 2.382684 -0.923880 1.500000
v 2.707107 -0.707107 1.500000
v 2.923880 -0.382683 1.500000
v 3.000000 -0.000000 1.500000
v 2.923880 0.382683 1.500000
v 2.707107 0.707107 1.500000
v 2.382684 0.923880 1.500000
v 2.000000 1.000000 1.500000
v 1.617317 0.923880 1.500000
v 1.292893 0.707107 1.500000
v 1.076120 0.382683 1.500000
v 1.076120 0.000000 1.117317
v 1.146447 -0.353553 1.117317
v 1.346719 -0.653282 1.117317
v 1.646447 -0.853553 1.117317
v 2.000000 -0.923880 1.117317
v 2.353553 -0.853553 1.117317
v 2.653281 -0.653282 1.117317
v 2.853553 -0.353553 1.117317
v 2.923880 -0.000000 1.117317
v 2.853553 0.353553 1.117317
v 2.653281 0.653282 1.117317
v 2.353553 0.853553 1.117317
v 2.000000 0.923880 1.117317
v 1.646447 0.853553 1.117317
v 1.346719 0.653282 1.117317
v 1.146447 0.353553 1.117317
v 1.292893 0.000000 0.792893
v 1.346719 -0.270598 0.792893
v 1.500000 -0.500000 0.792893
v 1.729402 -0.653282 0.792893
v 2.000000 -0.707107 0.792893
v 2.270598 -0.653282 0.792893
v 2.500000 -0.500000 0.792893
v 2.653281 -0.270598 0.792893
v 2.707107 -0.000000 0.792893
v 2.653281 0.270598 0.792893
v 2.500000 0.500000 0.792893
v 2.270598 0.653282 0.792893
v 2.000000 0.707107 0.792893
v 1.729402 0.653282 0.792893
v 1.500000 0.500000 0.792893
v 1.346719 0.270598 0.792893
v 1.617317 0.000000 0.576120
v 1.646447 -0.146447 0.576120
v 1.729402 -0.270598 0.576120
v 1.853553 -0.353553 0.576120
v 2.000000 -0.382683 0.576120
v 2.146447 -0.353553 0.576120
v 2.270598 -0.270598 0.576120
v 2.353553 -0.146447 0.576120
v 2.382684 -0.000000 0.576120
v 2.353553 0.146447 0.576120
v 2.270598 0.270598 0.576120
v 2.146447 0.353553 0.576120
v 2.000000 0.382683 0.576120
v 1.853553 0.353553 0.576120
v 1.729402 0.270598 0.576120
v 1.646447 0.146447 0.576120
vn -0.1949 -0.0388 0.9800
vn -0.1653 -0.1104 0.9800
vn -0.1104 -0.1653 0.9800
vn -0.0388 -0.1949 0.9800
vn 0.0388 -0.1949 0.9800
vn 0.1104 -0.1653 0.9800
vn 0.1653 -0.1104 0.9800
vn 0.1949 -0.0388 0.9800
vn 0.1949 0.0388 0.9800
vn 0.1653 0.1104 0.9800
vn 0.1104 0.1653 0.9800
vn 0.0388 0.1949 0.9800
vn -0.0388 0.1949 0.9800
vn -0.1104 0.1653 0.9800
vn -0.1653 0.1104 0.9800
vn -0.1949 0.0388 0.9800
vn 0.5522 0.1098 -0.8264
vn 0.4681 0.3128 -0.8264
vn 0.3128 0.4681 -0.8264
vn 0.1098 0.5522 -0.8264
vn -0.1098 0.5522 -0.8264
vn -0.3128 0.4681 -0.8264
vn -0.4681 0.3128 -0.8264
vn -0.5522 0.1098 -0.8264
vn -0.5522 -0.1098 -0.8264
vn -0.4681 -0.3128 -0.8264
vn -0.3128 -0.4681 -0.8264
vn -0.1098 -0.5522 -0.8264
vn 0.1098 -0.5522 -0.8264
vn 0.3128 -0.4681 -0.8264
vn 0.4681 -0.3128 -0.8264
vn 0.5522 -0.1098 -0.8264
vn 0.8203 0.1632 -0.5481
vn 0.6954 0.4647 -0.5481
vn 0.4647 0.6954 -0.5481
vn 0.1632 0.8203 -0.5481
vn -0.1632 0.8203 -0.5481
vn -0.4647 0.6954 -0.5481
vn -0.6954 0.4647 -0.5481
vn -0.8203 0.1632 -0.5481
vn -0.8203 -0.1632 -0.5481
vn -0.6954 -0.4647 -0.5481
vn -0.4647 -0.6954 -0.5481
vn -0.1632 -0.8203 -0.5481
vn 0.1632 -0.8203 -0.5481
vn 0.4647 -0.6954 -0.5481
vn 0.6954 -0.4647 -0.5481
vn 0.8203 -0.1632 -0.5481
vn 0.9626 0.1915 -0.1915
vn 0.8161 0.5453 -0.1915
vn 0.5453 0.8161 -0.1915
vn 0.1915 0.9626 -0.1915
vn -0.1915 0.9626 -0.1915
vn -0.5453 0.8161 -0.1915
vn -0.8161 0.5453 -0.1915
vn -0.9626 0.1915 -0.1915
vn -0.9626 -0.1915 -0.1915
vn -0.8161 -0.5453 -0.1915
vn -0.5453 -0.8161 -0.1915
vn -0.1915 -0.9626 -0.1915
vn 0.1915 -0.9626 -0.1915
vn 0.5453 -0.8161 -0.1915
vn 0.8161 -0.5453 -0.1915
vn 0.9626 -0.1915 -0.1915
vn 0.9626 0.1915 0.1915
vn 0.8161 0.5453 0.1915
vn 0.5453 0.8161 0.1915
vn 0.1915 0.9626 0.1915
vn -0.1915 0.9626 0.1915
vn -0.5453 0.8161 0.1915
vn -0.8161 0.5453 0.1915
vn -0.9626 0.1915 0.1915
vn -0.9626 -0.1915 0.1915
vn -0.8161 -0.5453 0.1915
vn -0.5453 -0.8161 0.1915
vn -0.1915 -0.9626 0.1915
vn 0.1915 -0.9626 0.1915
vn 0.5453 -0.8161 0.1915
vn 0.8161 -0.5453 0.1915
vn 0.9626 -0.1915 0.1915
vn 0.8203 0.1632 0.5481
vn 0.6954 0.4647 0.5481
vn 0.4647 0.6954 0.5481
vn 0.1632 0.8203 0.5481
vn -0.1632 0.8203 0.5481
vn -0.4647 0.6954 0.5481
vn -0.6954 0.4647 0.5481
vn -0.8203 0.1632 0.5481
vn -0.8203 -0.1632 0.5481
vn -0.6954 -0.4647 0.5481
vn -0.4647 -0.6954 0.5481
vn -0.1632 -0.8203 0.5481
vn 0.1632 -0.8203 0.5481
vn 0.4647 -0.6954 0.5481
vn 0.6954 -0.4647 0.5481
vn 0.8203 -0.1632 0.5481
vn 0.5522 0.1098 0.8264
vn 0.4681 0.3128 0.8264
vn 0.3128 0.4681 0.8264
vn 0.1098 0.5522 0.8264
vn -0.1098 0.5522 0.8264
vn -0.3128 0.4681 0.8264
vn -0.4681 0.3128 0.8264
vn -0.5522 0.1098 0.8264
vn -0.5522 -0.1098 0.8264
vn -0.4681 -0.3128 0.8264
vn -0.3128 -0.4681 0.8264
vn -0.1098 -0.5522 0.8264
vn 0.1098 -0.5522 0.8264
vn 0.3128 -0.4681 0.8264
vn 0.4681 -0.3128 0.8264
vn 0.5522 -0.1098 0.8264
vn -0.1949 -0.0388 -0.9800
vn -0.1653 -0.1104 -0.9800
vn -0.1104 -0.1653 -0.9800
vn -0.0388 -0.1949 -0.9800
vn 0.0388 -0.1949 -0.9800
vn 0.1104 -0.1653 -0.9800
vn 0.1653 -0.1104 -0.9800
vn 0.1949 -0.0388 -0.9800
vn 0.1949 0.0388 -0.9800
vn 0.1653 0.1104 -0.9800
vn 0.1104 0.1653 -0.9800
vn 0.0388 0.1949 -0.9800
vn -0.0388 0.1949 -0.9800
vn -0.1104 0.1653 -0.9800
vn -0.1653 0.1104 -0.9800
vn -0.1949 0.0388 -0.9800
s 0
f 9//7 11//7 12//7
f 9//8 12//8 13//8
f 9//9 13//9 14//9
f 9//10 14//10 15//10
f 9//11 15//11 16//11
f 9//12 16//12 17//12
f 9//13 17//13 18//13
f 9//14 18//14 19//14
f 9//15 19//15 20//15
f 9//16 20//16 21//16
f 9//17 21//17 22//17
f 9//18 22//18 23//18
f 9//19 23//19 24//19
f 9//20 24//20 25//20
f 9//21 25//21 26//21
f 9//22 26//22 11//22
f 11//23 12//23 28//23 27//23
f 12//24 13//24 29//24 28//24
f 13//25 14//25 30//25 29//25
f 14//26 15//26 31//26 30//26
f 15//27 16//27 32//27 31//27
f 16//28 17//28 33//28 32//28
f 17//29 18//29 34//29 33//29
f 18//30 19//30 35//30 34//30
f 19//31 20//31 36//31 35//31
f 20//32 21//32 37//32 36//32
f 21//33 22//33 38//33 37//33
f 22//34 23//34 39//34 38//34
f 23//35 24//35 40//35 39//35
f 24//36 25//36 41//36 40//36
f 25//37 26//37 42//37 41//37
f 26//38 11//38 27//38 42//38
f 27//39 28//39 44//39 43//39
f 28//40 29//40 45//40 44//40
f 29//41 30//41 46//41 45//41
f 30//42 31//42 47//42 46//42
f 31//43 32//43 48//43 47//43
f 32//44 33//44 49//44 48//44
f 33//45 34//45 50//45 49//45
f 34//46 35//46 51//46 50//46
f 35//47 36//47 52//47 51//47
f 36//48 37//48 53//48 52//48
f 37//49 38//49 54//49 53//49
f 38//50 39//50 55//50 54//50
f 39//51 40//51 56//51 55//51
f 40//52 41//52 57//52 56//52
f 41//53 42//53 58//53 57//53
f 42//54 27//54 43//54 58//54
f 43//55 44//55 60//55 59//55
f 44//56 45//56 61//56 60//56
f 45//57 46//57 62//57 61//57
f 46//58 47//58 63//58 62//58
f 47//59 48//59 64//59 63//59
f 48//60 49//60 65//60 64//60
f 49//61 50//61 66//61 65//61
f 50//62 51//62 67//62 66//62
f 51//63 52//63 68//63 67//63
f 52//64 53//64 69//64 68//64
f 53//65 54//65 70//65 69//65
f 54//66 55//66 71//66 70//66
f 55//67 56//67 72//67 71//67
f 56//68 57//68 73//68 72//68
f 57//69 58//69 74//69 73//69
f 58//70 43//70 59//70 74//70
f 59//71 60//71 76//71 75//71
f 60//72 61//72 77//72 76//72
f 61//73 62//73 78//73 77//73
f 62//74 63//74 79//74 78//74
f 63//75 64//75 80//75 79//75
f 64//76 65//76 81//76 80//76
f 65//77 66//77 82//77 81//77
f 66//78 67//78 83//78 82//78
f 67//79 68//79 84//79 83//79
f 68//80 69//80 85//80 84//80
f 69//81 70//81 86//81 85//81
f 70//82 71//82 87//82 86//82
f 71//83 72//83 88//83 87//83
f 72//84 73//84 89//84 88//84
f 73//85 74//85 90//85 89//85
f 74//86 59//86 75//86 90//86
f 75//87 76//87 92//87 91//87
f 76//88 77//88 93//88 92//88
f 77//89 78//89 94//89 93//89
f 78//90 79//90 95//90 94//90
f 79//91 80//91 96//91 95//91
f 80//92 81//92 97//92 96//92
f 81//93 82//93 98//93 97//93
f 82//94 83//94 99//94 98//94
f 83//95 84//95 100//95 99//95
f 84//96 85//96 101//96 100//96
f 85//97 86//97 102//97 101//97
f 86//98 87//98 103//98 102//98
f 87//99 88//99 104//99 103//99
f 88//100 89//100 105//100 104//100
f 89//101 90//101 106//101 105//101
f 90//102 75//102 91//102 106//102
f 91//103 92//103 108//103 107//103
f 92//104 93//104 109//104 108//104
f 93//105 94//105 110//105 109//105
f 94//106 95//106 111//106 110//106
f 95//107 96//107 112//107 111//107
f 96//108 97//108 113//108 112//108
f 97//109 98//109 114//109 113//109
f 98//110 99//110 115//110 114//110
f 99//111 100//111 116//111 115//111
f 100//112 101//112 117//112 116//112
f 101//113 102//113 118//113 117//113
f 102//114 103//114 119//114 118//114
f 103//115 104//115 120//115 119//115
f 104//116 105//116 121//116 120//116
f 105//117 106//117 122//117 121//117
f 106//118 91//118 107//118 122//118
f 10//119 108//119 107//119
f 10//120 109//120 108//120
f 10//121 110//121 109//121
f 10//122 111//122 110//122
f 10//123 112//123 111//123
f 10//124 113//124 112//124
f 10//125 114//125 113//125
f 10//126 115//126 114//126
f 10//127 116//127 115//127
f 10//128 117//128 116//128
f 10//129 118//129 117//129
f 10//130 119//130 118//130
f 10//131 120//131 119//131
f 10//132 121//132 120//132
f 10//133 122//133 121//133
f 10//134 107//134 122//134
